<svg xmlns="http://www.w3.org/2000/svg" viewBox="0 0 306.3 238.9" enable-background="new 0 0 306.3 238.9" transform='rotate(180)'>
    <g class="total">
      <path fill="#029ae6" d="M306.3 41.9c-12 4-116.5 155.1-116.5 155.1l-4-9-32.9 50.9S0 42.9.1 43.1s306.2-1.2 306.2-1.2z"/>
      <path fill="#029ae6" d="M152.3 197.7v41.2l33.2-50.9 4.1 9S294.2 45.9 306.2 41.9H116.4l35.9 155.8z"/>
      <path fill="#CFCFCF" d="M191.6 152.4l-7.1-12.7-31.9 52.4-23.4-61.8v30l-34.6-50.8 7.2 29.5L23 72.6c45.6 56.6 129.8 158.9 129.8 158.9l32.9-50.9 4 9s48.4-62.8 83.1-108.6l-81.2 71.4z"/>
      <path fill="#fe6627" d="M191.6 159.9l-7.1-12.7-31.9 52.4-23.4-61.8v30l-32.9-50.9 5.5 29.6-75.6-69.8c45.6 56.6 126.6 162.2 126.6 162.2l32.9-50.9 4 9s43.7-64.2 78.5-109.9l-76.6 72.8z"/>
      <path fill="#029Ae6" d="M298 29.4l-46.4-15.8-117.8-5.7-77.5 10-40 10L0 43.1l57.3 15.8 64.4 5.9 152.6-3.9 27.5-15.8 4.5-3.2z"/>
    </g>
</svg>
